# xmcd
#
# Track frame offsets: 
#        150
#        43087
#        72712
#        90905
#        119057
#        176762
#        231650
#        249880
#        280227
#
# Disc length: 4261 seconds
#
# Revision: 0
# Processed by: cddbd v1.5.2PL0 Copyright (c) Steve Scherf et al.
# Submitted via: ExactAudioCopy v1.0b1
#
DISCID=8510a309
DTITLE=Eugen Jochum - The Complete Beethoven Symphonies 1 and 2 ,Japan E
DTITLE=MI, CD1
DYEAR=2002
DGENRE=Classical
TTITLE0=Symphony No.1 in C major, op.21-I. Adagio molto - Allegro con 
TTITLE0=brio
TTITLE1=II. Andante cantabile con moto
TTITLE2=III. Menuetto: Allegro molto e vivace
TTITLE3=IV. Adagio - Allegro molto e vivace
TTITLE4=Symphony No.2 in D major, op.36-I. Adagio molto - Allegro con 
TTITLE4=brio
TTITLE5=II. Larghetto
TTITLE6=III. Scherzo: Allegro
TTITLE7=IV. Allegro molto
TTITLE8=Ouverture 'Coriolan' op.62
EXTD=
EXTT0=
EXTT1=
EXTT2=
EXTT3=
EXTT4=
EXTT5=
EXTT6=
EXTT7=
EXTT8=
PLAYORDER=
